<svg xmlns="http://www.w3.org/2000/svg" width="602.1800537109375" height="486.79815673828125" viewBox="-397.4886779785156 -236.8577117919922 602.1800537109375 486.79815673828125"><title>Neo4j Graph Visualization</title><desc>Created using Neo4j (http://www.neo4j.com/)</desc><g class="layer relationships"><g class="relationship" transform="translate(-368.4886725137196 -29.093401284458736) rotate(326.78403589645154)"><path class="outline" fill="#A5ABB6" stroke="none" d="M 24.018736134675446,-6.953439040707552 L 24.277555179777966,-5.987513214418485 A 283.70726385353584 283.70726385353584 0 0 1 83.21667391333102,-15.284346802075731 L 83.16560111318887,-16.283041735018514 A 284.70726385353584 284.70726385353584 0 0 0 24.018736134675446,-6.953439040707552 Z M 107.19973489162733,-16.496285920140565 L 107.16639068936098,-15.496841992661246 A 283.70726385353584 283.70726385353584 0 0 1 166.26119087175726,-7.247270897924572 L 165.5362733108715,-4.336172388784172 L 173.17457365323247,-6.040979674047892 L 167.2277476196049,-11.128735576778439 L 166.50283005871916,-8.217637067638039 A 284.70726385353584 284.70726385353584 0 0 0 107.19973489162733,-16.496285920140565"/><text text-anchor="middle" pointer-events="none" font-size="8px" fill="#000000" x="95.18485283438929" y="-13.143417750158108" font-family="sans-serif">road</text></g><g class="relationship" transform="translate(-203.31330271360724 -137.2468761354092) rotate(332.50683543661376)"><path class="outline" fill="#A5ABB6" stroke="none" d="M 21.40063509461097,-12.933012701892217 L 21.90063509461097,-12.06698729810778 A 106.54568866016952 106.54568866016952 0 0 1 60.92761688535701,-25.384724916693813 L 60.79391027818705,-26.37574587671388 A 107.54568866016952 107.54568866016952 0 0 0 21.40063509461097,-12.933012701892217 Z M 84.84971558193759,-26.905217116108062 L 84.75974232240677,-25.909272934655405 A 106.54568866016952 106.54568866016952 0 0 1 124.33489575303277,-14.32157799928814 L 122.9506609628723,-11.660019424747757 L 130.77590489198707,-11.535289918003803 L 126.18054213991338,-17.87032276534198 L 124.79630734975292,-15.2087641908016 A 107.54568866016952 107.54568866016952 0 0 0 84.84971558193759,-26.905217116108062"/><text text-anchor="middle" pointer-events="none" font-size="8px" fill="#000000" x="72.81796111594782" y="-23.81548342949162" font-family="sans-serif">road</text></g><g class="relationship" transform="translate(-67.63163938330887 -207.85770726556686) rotate(433.35452553354776)"><path class="outline" fill="#A5ABB6" stroke="none" d="M 21.40063509461097,12.933012701892217 L 21.90063509461097,12.06698729810778 A 102.18447080486784 102.18447080486784 0 0 0 44.94910185466026,21.833583699827273 L 44.674659286024394,22.795187192188095 A 103.18447080486784 103.18447080486784 0 0 1 21.40063509461097,12.933012701892217 Z M 96.79562620247705,23.974152825449508 L 96.56494463266559,23.001123528177672 A 102.18447080486784 102.18447080486784 0 0 0 120.03144860194105,14.286686270204235 L 118.65045858258514,11.623442652650757 L 126.47584871279183,11.50825016129934 L 121.87276862774894,17.83767776027554 L 120.49177860839303,15.174434142722063 A 103.18447080486784 103.18447080486784 0 0 1 96.79562620247705,23.974152825449508"/><text text-anchor="middle" pointer-events="none" font-size="8px" fill="#000000" x="70.67076270957709" y="29.230851070112166" font-family="sans-serif">twowheeler</text></g><g class="relationship" transform="translate(-25.04541487400077 -65.4180805850951) rotate(369.6010272497631)"><path class="outline" fill="#A5ABB6" stroke="none" d="M 25 0.5 L 70.60891920134978 0.5 L 70.60891920134978 -0.5 L 25 -0.5 Z M 92.40891939208464 0.5 L 138.01783859343442 0.5 L 138.01783859343442 3.5 L 145.01783859343442 0 L 138.01783859343442 -3.5 L 138.01783859343442 -0.5 L 92.40891939208464 -0.5 Z"/><text text-anchor="middle" pointer-events="none" font-size="8px" fill="#000000" x="81.50891929671721" y="3" font-family="sans-serif">trek</text></g><g class="relationship" transform="translate(-67.63163938330887 -207.85770726556686) rotate(433.35452553354776)"><path class="outline" fill="#A5ABB6" stroke="none" d="M 25 0.5 L 58.83477276286877 0.5 L 58.83477276286877 -0.5 L 25 -0.5 Z M 82.83477276286877 0.5 L 116.66954552573753 0.5 L 116.66954552573753 3.5 L 123.66954552573753 0 L 116.66954552573753 -3.5 L 116.66954552573753 -0.5 L 82.83477276286877 -0.5 Z"/><text text-anchor="middle" pointer-events="none" font-size="8px" fill="#000000" x="70.83477276286877" y="3" font-family="sans-serif">road</text></g><g class="relationship" transform="translate(-67.63163938330887 -207.85770726556686) rotate(433.35452553354776)"><path class="outline" fill="#A5ABB6" stroke="none" d="M 21.40063509461097,-12.933012701892217 L 21.90063509461097,-12.06698729810778 A 102.18447080486784 102.18447080486784 0 0 1 59.87127912716944,-24.911131475736937 L 59.74286831027601,-25.9028525363708 A 103.18447080486784 103.18447080486784 0 0 0 21.40063509461097,-12.933012701892217 Z M 81.60231113180112,-26.397308671271972 L 81.51887376406933,-25.400795647942118 A 102.18447080486784 102.18447080486784 0 0 1 120.03144860194105,-14.286686270204235 L 118.65045858258514,-11.623442652650757 L 126.47584871279183,-11.50825016129934 L 121.87276862774894,-17.83767776027554 L 120.49177860839303,-15.174434142722063 A 103.18447080486784 103.18447080486784 0 0 0 81.60231113180112,-26.397308671271972"/><text text-anchor="middle" pointer-events="none" font-size="8px" fill="#000000" x="70.67076270957709" y="-23.230851070112166" font-family="sans-serif">trek</text></g><g class="relationship" transform="translate(-203.31330271360724 -137.2468761354092) rotate(332.50683543661376)"><path class="outline" fill="#A5ABB6" stroke="none" d="M 25 0.5 L 62.07777974454436 0.5 L 62.07777974454436 -0.5 L 25 -0.5 Z M 83.87777993527922 0.5 L 120.95555967982358 0.5 L 120.95555967982358 3.5 L 127.95555967982358 0 L 120.95555967982358 -3.5 L 120.95555967982358 -0.5 L 83.87777993527922 -0.5 Z"/><text text-anchor="middle" pointer-events="none" font-size="8px" fill="#000000" x="72.97777983991179" y="3" font-family="sans-serif">trek</text></g><g class="relationship" transform="translate(-203.31330271360724 -137.2468761354092) rotate(332.50683543661376)"><path class="outline" fill="#A5ABB6" stroke="none" d="M 21.40063509461097,12.933012701892217 L 21.90063509461097,12.06698729810778 A 106.54568866016952 106.54568866016952 0 0 0 47.063049615169334,22.566271847777728 L 46.79921510282988,23.530839808109505 A 107.54568866016952 107.54568866016952 0 0 1 21.40063509461097,12.933012701892217 Z M 98.95603081490967,24.678817749784272 L 98.73489176520435,23.703575461583313 A 106.54568866016952 106.54568866016952 0 0 0 124.33489575303277,14.32157799928814 L 122.9506609628723,11.660019424747757 L 130.77590489198707,11.535289918003803 L 126.18054213991338,17.87032276534198 L 124.79630734975292,15.2087641908016 A 107.54568866016952 107.54568866016952 0 0 1 98.95603081490967,24.678817749784272"/><text text-anchor="middle" pointer-events="none" font-size="8px" fill="#000000" x="72.81796111594782" y="29.81548342949162" font-family="sans-serif">twowheeler</text></g><g class="relationship" transform="translate(-368.4886725137196 -29.093401284458736) rotate(326.78403589645154)"><path class="outline" fill="#A5ABB6" stroke="none" d="M 24.018736134675446,6.953439040707552 L 24.277555179777966,5.987513214418485 A 283.70726385353584 283.70726385353584 0 0 0 84.31341135341067,15.338305694043072 L 84.2662042894685,16.337190819126988 A 284.70726385353584 284.70726385353584 0 0 1 24.018736134675446,6.953439040707552 Z M 106.09834417973545,16.53089769133169 L 106.06886847979317,15.531332194171569 A 283.70726385353584 283.70726385353584 0 0 0 166.26119087175726,7.247270897924572 L 165.5362733108715,4.336172388784172 L 173.17457365323247,6.040979674047892 L 167.2277476196049,11.128735576778439 L 166.50283005871916,8.217637067638039 A 284.70726385353584 284.70726385353584 0 0 1 106.09834417973545,16.53089769133169"/><text text-anchor="middle" pointer-events="none" font-size="8px" fill="#000000" x="95.18485283438928" y="19.143417750158108" font-family="sans-serif">trek</text></g><g class="relationship" transform="translate(-368.4886725137196 -29.093401284458736) rotate(372.03274793836886)"><path class="outline" fill="#A5ABB6" stroke="none" d="M 21.40063509461097,12.933012701892217 L 21.90063509461097,12.06698729810778 A 137.76492481958707 137.76492481958707 0 0 0 77.40347544637501,29.87273893795485 L 77.30635622625746,30.868011693074678 A 138.76492481958707 138.76492481958707 0 0 1 21.40063509461097,12.933012701892217 Z M 99.15882027461763,31.27098137665824 L 99.09846119770319,30.27280464790023 A 137.76492481958707 137.76492481958707 0 0 0 155.220036385838,14.525459570844854 L 153.81684310643502,11.873847114123787 L 161.6409976647543,11.693277328358095 L 157.0909607583753,18.060942846472944 L 155.68776747897232,15.409330389751878 A 138.76492481958707 138.76492481958707 0 0 1 99.15882027461763,31.27098137665824"/><text text-anchor="middle" pointer-events="none" font-size="8px" fill="#000000" x="88.23386085712663" y="34.00048491177479" font-family="sans-serif">trek</text></g><g class="relationship" transform="translate(-188.7878790707517 9.210544675346737) rotate(335.49800512559193)"><path class="outline" fill="#A5ABB6" stroke="none" d="M 25 0.5 L 75.5736436697482 0.5 L 75.5736436697482 -0.5 L 25 -0.5 Z M 97.37364386048306 0.5 L 147.94728753023125 0.5 L 147.94728753023125 3.5 L 154.94728753023125 0 L 147.94728753023125 -3.5 L 147.94728753023125 -0.5 L 97.37364386048306 -0.5 Z"/><text text-anchor="middle" pointer-events="none" font-size="8px" fill="#000000" x="86.47364376511563" y="3" font-family="sans-serif">trek</text></g><g class="relationship" transform="translate(-188.7878790707517 9.210544675346737) rotate(413.20562901245853)"><path class="outline" fill="#A5ABB6" stroke="none" d="M 24.018736134675446,-6.953439040707552 L 24.277555179777966,-5.987513214418485 A 226.016861085392 226.016861085392 0 0 1 54.33946604958113,-11.892953645913963 L 54.2136543859874,-12.885007790254775 A 227.016861085392 227.016861085392 0 0 0 24.018736134675446,-6.953439040707552 Z M 106.65925760374697,-13.428935701731291 L 106.55404852744053,-12.43448557715854 A 226.016861085392 226.016861085392 0 0 1 136.73197372017216,-7.1538092098904285 L 136.01578444847684,-4.240551080731855 L 143.64894090015807,-5.968243930794417 L 137.6868927490993,-11.038153382101859 L 136.97070347740396,-8.124895252943286 A 227.016861085392 227.016861085392 0 0 0 106.65925760374697,-13.428935701731291"/><text text-anchor="middle" pointer-events="none" font-size="8px" fill="#000000" x="80.42588042613797" y="-11.176669521510945" font-family="sans-serif">twowheeler</text></g><g class="relationship" transform="translate(-88.20939801423377 143.6841164835526) rotate(335.03367593084545)"><path class="outline" fill="#A5ABB6" stroke="none" d="M 24.018736134675446,-6.953439040707552 L 24.277555179777966,-5.987513214418485 A 195.7627995597395 195.7627995597395 0 0 1 61.85544642685274,-12.219886715912565 L 61.78858362334252,-13.217648894744173 A 196.7627995597395 196.7627995597395 0 0 0 24.018736134675446,-6.953439040707552 Z M 83.63147476390732,-13.466121281825764 L 83.58732628281781,-12.467096301348562 A 195.7627995597395 195.7627995597395 0 0 1 121.29726716384123,-7.091154636037768 L 120.58692937893531,-4.176464218285831 L 128.21660110274672,-5.9194815408826225 L 122.24438421038244,-10.977408526373683 L 121.53404642547652,-8.062718108621747 A 196.7627995597395 196.7627995597395 0 0 0 83.63147476390732,-13.466121281825764"/><text text-anchor="middle" pointer-events="none" font-size="8px" fill="#000000" x="72.7122657549436" y="-10.145271830824782" font-family="sans-serif">trek</text></g><g class="relationship" transform="translate(50.04555249493771 79.31367678605211) rotate(308.4929169203308)"><path class="outline" fill="#A5ABB6" stroke="none" d="M 24.018736134675446,6.953439040707552 L 24.277555179777966,5.987513214418485 A 188.25582603712783 188.25582603712783 0 0 0 44.7592440899173,10.271621205359907 L 44.609222150016194,11.26030387312963 A 189.25582603712783 189.25582603712783 0 0 1 24.018736134675446,6.953439040707552 Z M 97.02557284116166,11.871210179188154 L 96.89863447929187,10.879299572184777 A 188.25582603712783 188.25582603712783 0 0 0 117.47460780472267,7.073713730172138 L 116.7658989095261,4.158626818625711 L 124.39459541419708,5.905907459971256 L 118.41955299831807,10.960496278900706 L 117.7108441031215,8.04540936735428 A 189.25582603712783 189.25582603712783 0 0 1 97.02557284116166,11.871210179188154"/><text text-anchor="middle" pointer-events="none" font-size="8px" fill="#000000" x="70.80197110418341" y="15.889356297915498" font-family="sans-serif">twowheeler</text></g><g class="relationship" transform="translate(50.04555249493771 79.31367678605211) rotate(308.4929169203308)"><path class="outline" fill="#A5ABB6" stroke="none" d="M 24.018736134675446,-6.953439040707552 L 24.277555179777966,-5.987513214418485 A 188.25582603712783 188.25582603712783 0 0 1 59.947107145347196,-11.948990999104751 L 59.8777619280482,-12.946583722032187 A 189.25582603712783 189.25582603712783 0 0 0 24.018736134675446,-6.953439040707552 Z M 81.72187909997866,-13.201174298343858 L 81.6758032090913,-12.202236356187825 A 188.25582603712783 188.25582603712783 0 0 1 117.47460780472267,-7.073713730172138 L 116.7658989095261,-4.158626818625711 L 124.39459541419708,-5.905907459971256 L 118.41955299831807,-10.960496278900706 L 117.7108441031215,-8.04540936735428 A 189.25582603712783 189.25582603712783 0 0 0 81.72187909997866,-13.201174298343858"/><text text-anchor="middle" pointer-events="none" font-size="8px" fill="#000000" x="70.80197110418332" y="-9.889356297915498" font-family="sans-serif">trek</text></g><g class="relationship" transform="translate(-88.20939801423377 143.6841164835526) rotate(335.03367593084545)"><path class="outline" fill="#A5ABB6" stroke="none" d="M 24.018736134675446,6.953439040707552 L 24.277555179777966,5.987513214418485 A 195.7627995597395 195.7627995597395 0 0 0 46.65907244942912,10.603705992393259 L 46.51458318158758,11.593212359971858 A 196.7627995597395 196.7627995597395 0 0 1 24.018736134675446,6.953439040707552 Z M 98.93847535245678,12.189556934688568 L 98.81653269166054,11.197019788039654 A 195.7627995597395 195.7627995597395 0 0 0 121.29726716384123,7.091154636037768 L 120.58692937893531,4.176464218285831 L 128.21660110274672,5.9194815408826225 L 122.24438421038244,10.977408526373683 L 121.53404642547652,8.062718108621747 A 196.7627995597395 196.7627995597395 0 0 1 98.93847535245678,12.189556934688568"/><text text-anchor="middle" pointer-events="none" font-size="8px" fill="#000000" x="72.71226575494363" y="16.145271830824782" font-family="sans-serif">twowheeler</text></g><g class="relationship" transform="translate(-188.7878790707517 9.210544675346737) rotate(413.20562901245853)"><path class="outline" fill="#A5ABB6" stroke="none" d="M 24.018736134675446,6.953439040707552 L 24.277555179777966,5.987513214418485 A 226.016861085392 226.016861085392 0 0 0 69.56262039130212,13.302337836658893 L 69.50416279266007,14.3006277290053 A 227.016861085392 227.016861085392 0 0 1 24.018736134675446,6.953439040707552 Z M 91.34267782472583,14.527121031443244 L 91.30493765670133,13.527833445351291 A 226.016861085392 226.016861085392 0 0 0 136.73197372017216,7.1538092098904285 L 136.01578444847684,4.240551080731855 L 143.64894090015807,5.968243930794417 L 137.6868927490993,11.038153382101859 L 136.97070347740396,8.124895252943286 A 227.016861085392 227.016861085392 0 0 1 91.34267782472583,14.527121031443244"/><text text-anchor="middle" pointer-events="none" font-size="8px" fill="#000000" x="80.425880426138" y="17.176669521510945" font-family="sans-serif">trek</text></g><g class="relationship" transform="translate(-368.4886725137196 -29.093401284458736) rotate(372.03274793836886)"><path class="outline" fill="#A5ABB6" stroke="none" d="M 25 0.5 L 54.76888368724519 0.5 L 54.76888368724519 -0.5 L 25 -0.5 Z M 121.96888445018465 0.5 L 151.73776813742984 0.5 L 151.73776813742984 3.5 L 158.73776813742984 0 L 151.73776813742984 -3.5 L 151.73776813742984 -0.5 L 121.96888445018465 -0.5 Z"/><text text-anchor="middle" pointer-events="none" font-size="8px" fill="#000000" x="88.36888406871492" y="3" font-family="sans-serif">PublicTransport</text></g><g class="relationship" transform="translate(-368.4886725137196 -29.093401284458736) rotate(372.03274793836886)"><path class="outline" fill="#A5ABB6" stroke="none" d="M 21.40063509461097,-12.933012701892217 L 21.90063509461097,-12.06698729810778 A 137.76492481958707 137.76492481958707 0 0 1 76.31306950531267,-29.761956054914705 L 76.2080353101571,-30.75642466570541 A 138.76492481958707 138.76492481958707 0 0 0 21.40063509461097,-12.933012701892217 Z M 100.26050850985608,-31.19996354961505 L 100.19221019154709,-30.202298606001122 A 137.76492481958707 137.76492481958707 0 0 1 155.220036385838,-14.525459570844854 L 153.81684310643502,-11.873847114123787 L 161.6409976647543,-11.693277328358095 L 157.0909607583753,-18.060942846472944 L 155.68776747897232,-15.409330389751878 A 138.76492481958707 138.76492481958707 0 0 0 100.26050850985608,-31.19996354961505"/><text text-anchor="middle" pointer-events="none" font-size="8px" fill="#000000" x="88.23386085712666" y="-28.00048491177479" font-family="sans-serif">road</text></g><g class="relationship" transform="translate(-188.7878790707517 9.210544675346737) rotate(264.33601452191067)"><path class="outline" fill="#A5ABB6" stroke="none" d="M 25 0.5 L 59.18798133255203 0.5 L 59.18798133255203 -0.5 L 25 -0.5 Z M 80.98798152328689 0.5 L 115.17596285583892 0.5 L 115.17596285583892 3.5 L 122.17596285583892 0 L 115.17596285583892 -3.5 L 115.17596285583892 -0.5 L 80.98798152328689 -0.5 Z"/><text text-anchor="middle" pointer-events="none" font-size="8px" fill="#000000" x="70.08798142791946" y="3" transform="rotate(180 70.08798142791946 0)" font-family="sans-serif">trek</text></g><g class="relationship" transform="translate(-88.20939801423377 143.6841164835526) rotate(388.12532493380627)"><path class="outline" fill="#A5ABB6" stroke="none" d="M 24.018736134675446,-6.953439040707552 L 24.277555179777966,-5.987513214418485 A 218.09959566111652 218.09959566111652 0 0 1 67.54342373887341,-13.020322498257542 L 67.48298135021516,-14.018494185720812 A 219.09959566111652 219.09959566111652 0 0 0 24.018736134675446,-6.953439040707552 Z M 89.32256048323218,-14.250360512441944 L 89.28332409764572,-13.251130555902364 A 218.09959566111652 218.09959566111652 0 0 1 132.68875516990767,-7.138492661597369 L 131.97399633581134,-4.224883249016257 L 139.60630360494633,-5.956323617469447 L 133.64176694870278,-11.02330521170552 L 132.92700811460645,-8.109695799124406 A 219.09959566111652 219.09959566111652 0 0 0 89.32256048323218,-14.250360512441944"/><text text-anchor="middle" pointer-events="none" font-size="8px" fill="#000000" x="78.40518803658793" y="-10.906757892735754" font-family="sans-serif">trek</text></g><g class="relationship" transform="translate(56.3250491156877 220.94044186880623) rotate(267.46126261411644)"><path class="outline" fill="#A5ABB6" stroke="none" d="M 21.40063509461097,12.933012701892217 L 21.90063509461097,12.06698729810778 A 95.15013883561893 95.15013883561893 0 0 0 56.42161696482504,23.91495954042884 L 56.284422340546584,24.90550365104133 A 96.15013883561893 96.15013883561893 0 0 1 21.40063509461097,12.933012701892217 Z M 78.1448542984057,25.423074526931956 L 78.05469166431106,24.427147471664796 A 95.15013883561893 95.15013883561893 0 0 0 113.09770747964767,14.226182904305123 L 111.72234418009678,11.560029158879233 L 119.54796010223322,11.461360829590705 L 114.93152521238217,17.781054564872974 L 113.55616191283129,15.114900819447087 A 96.15013883561893 96.15013883561893 0 0 1 78.1448542984057,25.423074526931956"/><text text-anchor="middle" pointer-events="none" font-size="8px" fill="#000000" x="67.21171189804654" y="28.287891168473564" transform="rotate(180 67.21171189804654 25.287891168473564)" font-family="sans-serif">trek</text></g><g class="relationship" transform="translate(56.3250491156877 220.94044186880623) rotate(267.46126261411644)"><path class="outline" fill="#A5ABB6" stroke="none" d="M 25 0.5 L 55.382953990391144 0.5 L 55.382953990391144 -0.5 L 25 -0.5 Z M 79.38295399039114 0.5 L 109.76590798078229 0.5 L 109.76590798078229 3.5 L 116.76590798078229 0 L 109.76590798078229 -3.5 L 109.76590798078229 -0.5 L 79.38295399039114 -0.5 Z"/><text text-anchor="middle" pointer-events="none" font-size="8px" fill="#000000" x="67.38295399039114" y="3" transform="rotate(180 67.38295399039114 0)" font-family="sans-serif">road</text></g><g class="relationship" transform="translate(56.3250491156877 220.94044186880623) rotate(267.46126261411644)"><path class="outline" fill="#A5ABB6" stroke="none" d="M 21.40063509461097,-12.933012701892217 L 21.90063509461097,-12.06698729810778 A 95.15013883561893 95.15013883561893 0 0 1 41.55259663614649,-20.625250016401736 L 41.259132977364935,-21.58122024657345 A 96.15013883561893 96.15013883561893 0 0 0 21.40063509461097,-12.933012701892217 Z M 93.3106322219204,-22.81359937372696 L 93.06273941595941,-21.84481190645006 A 95.15013883561893 95.15013883561893 0 0 1 113.09770747964767,-14.226182904305123 L 111.72234418009678,-11.560029158879233 L 119.54796010223322,-11.461360829590705 L 114.93152521238217,-17.781054564872974 L 113.55616191283129,-15.114900819447087 A 96.15013883561893 96.15013883561893 0 0 0 93.3106322219204,-22.81359937372696"/><text text-anchor="middle" pointer-events="none" font-size="8px" fill="#000000" x="67.21171189804653" y="-22.287891168473564" transform="rotate(180 67.21171189804653 -25.287891168473564)" font-family="sans-serif">twowheeler</text></g><g class="relationship" transform="translate(-88.20939801423377 143.6841164835526) rotate(388.12532493380627)"><path class="outline" fill="#A5ABB6" stroke="none" d="M 24.018736134675446,6.953439040707552 L 24.277555179777966,5.987513214418485 A 218.09959566111652 218.09959566111652 0 0 0 52.32631040749483,11.562163787352972 L 52.19609662249238,12.553649727845993 A 219.09959566111652 219.09959566111652 0 0 1 24.018736134675446,6.953439040707552 Z M 104.63709983636998,13.110405089783768 L 104.52796583501237,12.116378042994938 A 218.09959566111652 218.09959566111652 0 0 0 132.68875516990767,7.138492661597369 L 131.97399633581134,4.224883249016257 L 139.60630360494633,5.956323617469447 L 133.64176694870278,11.02330521170552 L 132.92700811460645,8.109695799124406 A 219.09959566111652 219.09959566111652 0 0 1 104.63709983636998,13.110405089783768"/><text text-anchor="middle" pointer-events="none" font-size="8px" fill="#000000" x="78.40518803658799" y="16.906757892735754" font-family="sans-serif">twowheeler</text></g><g class="relationship" transform="translate(56.3250491156877 220.94044186880623) rotate(318.79514798997656)"><path class="outline" fill="#A5ABB6" stroke="none" d="M 25 0.5 L 64.92801937241418 0.5 L 64.92801937241418 -0.5 L 25 -0.5 Z M 86.72801956314905 0.5 L 126.65603893556323 0.5 L 126.65603893556323 3.5 L 133.65603893556323 0 L 126.65603893556323 -3.5 L 126.65603893556323 -0.5 L 86.72801956314905 -0.5 Z"/><text text-anchor="middle" pointer-events="none" font-size="8px" fill="#000000" x="75.82801946778162" y="3" font-family="sans-serif">trek</text></g><g class="relationship" transform="translate(175.6913679095656 116.4252724993732) rotate(257.83018096544345)"><path class="outline" fill="#A5ABB6" stroke="none" d="M 25 0.5 L 64.10763898909703 0.5 L 64.10763898909703 -0.5 L 25 -0.5 Z M 85.90763917983189 0.5 L 125.01527816892892 0.5 L 125.01527816892892 3.5 L 132.01527816892892 0 L 125.01527816892892 -3.5 L 125.01527816892892 -0.5 L 85.90763917983189 -0.5 Z"/><text text-anchor="middle" pointer-events="none" font-size="8px" fill="#000000" x="75.00763908446446" y="3" transform="rotate(180 75.00763908446446 0)" font-family="sans-serif">trek</text></g></g><g class="layer nodes"><g class="node" aria-label="graph-node21" transform="translate(-368.4886725137196,-29.093401284458736)"><circle class="outline" cx="0" cy="0" r="25" fill="#57C7E3" stroke="#23b3d7" stroke-width="2px"/><text class="caption" text-anchor="middle" pointer-events="none" x="0" y="5" font-size="10px" fill="#2A2C34" font-family="sans-serif"> Darjeeli…</text></g><g class="node" aria-label="graph-node23" transform="translate(142.59099183377347,-37.061413184132455)"><circle class="outline" cx="0" cy="0" r="25" fill="#D9C8AE" stroke="#c0a378" stroke-width="2px"/><text class="caption" text-anchor="middle" pointer-events="none" x="0" y="5" font-size="10px" fill="#2A2C34" font-family="sans-serif"> Sandak…</text></g><g class="node" aria-label="graph-node25" transform="translate(50.04555249493771,79.31367678605211)"><circle class="outline" cx="0" cy="0" r="25" fill="#F16667" stroke="#eb2728" stroke-width="2px"/><text class="caption" text-anchor="middle" pointer-events="none" x="0" y="5" font-size="10px" fill="#FFFFFF" font-family="sans-serif"> Gurdum</text></g><g class="node" aria-label="graph-node26" transform="translate(-203.31330271360724,-137.2468761354092)"><circle class="outline" cx="0" cy="0" r="25" fill="#F16667" stroke="#eb2728" stroke-width="2px"/><text class="caption" text-anchor="middle" pointer-events="none" x="0" y="5" font-size="10px" fill="#FFFFFF" font-family="sans-serif"> Tumbling</text></g><g class="node" aria-label="graph-node27" transform="translate(-67.63163938330887,-207.85770726556686)"><circle class="outline" cx="0" cy="0" r="25" fill="#F16667" stroke="#eb2728" stroke-width="2px"/><text class="caption" text-anchor="middle" pointer-events="none" x="0" y="5" font-size="10px" fill="#FFFFFF" font-family="sans-serif"> Gairibus</text></g><g class="node" aria-label="graph-node22" transform="translate(-25.04541487400077,-65.4180805850951)"><circle class="outline" cx="0" cy="0" r="25" fill="#F16667" stroke="#eb2728" stroke-width="2px"/><text class="caption" text-anchor="middle" pointer-events="none" x="0" y="5" font-size="10px" fill="#FFFFFF" font-family="sans-serif"> BhikeB…</text></g><g class="node" aria-label="graph-node20" transform="translate(-188.7878790707517,9.210544675346737)"><circle class="outline" cx="0" cy="0" r="25" fill="#57C7E3" stroke="#23b3d7" stroke-width="2px"/><text class="caption" text-anchor="middle" pointer-events="none" x="0" y="5" font-size="10px" fill="#2A2C34" font-family="sans-serif"> Rimbik</text></g><g class="node" aria-label="graph-node24" transform="translate(-88.20939801423377,143.6841164835526)"><circle class="outline" cx="0" cy="0" r="25" fill="#F16667" stroke="#eb2728" stroke-width="2px"/><text class="caption" text-anchor="middle" pointer-events="none" x="0" y="5" font-size="10px" fill="#FFFFFF" font-family="sans-serif"> Sirikhola</text></g><g class="node" aria-label="graph-node28" transform="translate(56.3250491156877,220.94044186880623)"><circle class="outline" cx="0" cy="0" r="25" fill="#F16667" stroke="#eb2728" stroke-width="2px"/><text class="caption" text-anchor="middle" pointer-events="none" x="0" y="5" font-size="10px" fill="#FFFFFF" font-family="sans-serif"> Ramm…</text></g><g class="node" aria-label="graph-node29" transform="translate(175.6913679095656,116.4252724993732)"><circle class="outline" cx="0" cy="0" r="25" fill="#D9C8AE" stroke="#c0a378" stroke-width="2px"/><text class="caption" text-anchor="middle" pointer-events="none" x="0" y="5" font-size="10px" fill="#2A2C34" font-family="sans-serif"> Sabargr…</text></g></g></svg>