<svg xmlns="http://www.w3.org/2000/svg" width="514.0860595703125" height="96.58659362792969" viewBox="-379.4868469238281 -26.737001419067383 514.0860595703125 96.58659362792969"><title>Neo4j Graph Visualization</title><desc>Created using Neo4j (http://www.neo4j.com/)</desc><g class="layer relationships"><g class="relationship" transform="translate(-350.4868421919962 40.849588945772936) rotate(353.2334337098566)"><path class="outline" fill="#A5ABB6" stroke="none" d="M 21.40063509461097,12.933012701892217 L 21.90063509461097,12.06698729810778 A 116.63009403995406 116.63009403995406 0 0 0 65.88731407254352,26.808968601204768 L 65.7644609773798,27.80139346839053 A 117.63009403995406 117.63009403995406 0 0 1 21.40063509461097,12.933012701892217 Z M 89.81960828097323,28.299744535330376 L 89.73796313527504,27.30308307315582 A 116.63009403995406 116.63009403995406 0 0 0 134.2974584945962,14.395514999688912 L 132.9063481600333,11.73754358579593 L 140.731243516107,11.59258612135761 L 136.15227227401346,17.939476884879554 L 134.76116193945055,15.281505470986572 A 117.63009403995406 117.63009403995406 0 0 1 89.81960828097323,28.299744535330376"/><text text-anchor="middle" pointer-events="none" font-size="8px" fill="#000000" x="77.78961570302742" y="31.167329311395633" font-family="sans-serif">road</text></g><g class="relationship" transform="translate(-188.7403957557334 21.658211915789792) rotate(352.71311675683717)"><path class="outline" fill="#A5ABB6" stroke="none" d="M 25 0.5 L 62.05691732123617 0.5 L 62.05691732123617 -0.5 L 25 -0.5 Z M 83.85691751197103 0.5 L 120.9138348332072 0.5 L 120.9138348332072 3.5 L 127.9138348332072 0 L 120.9138348332072 -3.5 L 120.9138348332072 -0.5 L 83.85691751197103 -0.5 Z"/><text text-anchor="middle" pointer-events="none" font-size="8px" fill="#000000" x="72.9569174166036" y="3" font-family="sans-serif">trek</text></g><g class="relationship" transform="translate(-37.061568657231284 2.262998758413221) rotate(361.54333052394327)"><path class="outline" fill="#A5ABB6" stroke="none" d="M 25 0.5 L 56.95626599555305 0.5 L 56.95626599555305 -0.5 L 25 -0.5 Z M 78.75626618628792 0.5 L 110.71253218184097 0.5 L 110.71253218184097 3.5 L 117.71253218184097 0 L 110.71253218184097 -3.5 L 110.71253218184097 -0.5 L 78.75626618628792 -0.5 Z"/><text text-anchor="middle" pointer-events="none" font-size="8px" fill="#000000" x="67.85626609092049" y="3" font-family="sans-serif">trek</text></g><g class="relationship" transform="translate(-350.4868421919962 40.849588945772936) rotate(353.2334337098566)"><path class="outline" fill="#A5ABB6" stroke="none" d="M 25 0.5 L 44.340502267804524 0.5 L 44.340502267804524 -0.5 L 25 -0.5 Z M 111.54050303074398 0.5 L 130.8810052985485 0.5 L 130.8810052985485 3.5 L 137.8810052985485 0 L 130.8810052985485 -3.5 L 130.8810052985485 -0.5 L 111.54050303074398 -0.5 Z"/><text text-anchor="middle" pointer-events="none" font-size="8px" fill="#000000" x="77.94050264927425" y="3" font-family="sans-serif">PublicTransport</text></g><g class="relationship" transform="translate(-350.4868421919962 40.849588945772936) rotate(353.2334337098566)"><path class="outline" fill="#A5ABB6" stroke="none" d="M 21.40063509461097,-12.933012701892217 L 21.90063509461097,-12.06698729810778 A 116.63009403995406 116.63009403995406 0 0 1 66.97493713739873,-26.93842399363976 L 66.86140944897335,-27.93195882642661 A 117.63009403995406 117.63009403995406 0 0 0 21.40063509461097,-12.933012701892217 Z M 88.71819348475303,-28.384766348518866 L 88.6459117150277,-27.387382096705466 A 116.63009403995406 116.63009403995406 0 0 1 134.2974584945962,-14.395514999688912 L 132.9063481600333,-11.73754358579593 L 140.731243516107,-11.59258612135761 L 136.15227227401346,-17.939476884879554 L 134.76116193945055,-15.281505470986572 A 117.63009403995406 117.63009403995406 0 0 0 88.71819348475303,-28.384766348518866"/><text text-anchor="middle" pointer-events="none" font-size="8px" fill="#000000" x="77.7896157030274" y="-25.167329311395633" font-family="sans-serif">trek</text></g></g><g class="layer nodes"><g class="node" aria-label="graph-node21" transform="translate(-350.4868421919962,40.849588945772936)"><circle class="outline" cx="0" cy="0" r="25" fill="#57C7E3" stroke="#23b3d7" stroke-width="2px"/><text class="caption" text-anchor="middle" pointer-events="none" x="0" y="5" font-size="10px" fill="#2A2C34" font-family="sans-serif"> Darjeeli…</text></g><g class="node" aria-label="graph-node23" transform="translate(105.59919348658418,6.106667097214444)"><circle class="outline" cx="0" cy="0" r="25" fill="#D9C8AE" stroke="#c0a378" stroke-width="2px"/><text class="caption" text-anchor="middle" pointer-events="none" x="0" y="5" font-size="10px" fill="#2A2C34" font-family="sans-serif"> Sandak…</text></g><g class="node" aria-label="graph-node20" transform="translate(-188.7403957557334,21.658211915789792)"><circle class="outline" cx="0" cy="0" r="25" fill="#57C7E3" stroke="#23b3d7" stroke-width="2px"/><text class="caption" text-anchor="middle" pointer-events="none" x="0" y="5" font-size="10px" fill="#2A2C34" font-family="sans-serif"> Rimbik</text></g><g class="node" aria-label="graph-node22" transform="translate(-37.061568657231284,2.262998758413221)"><circle class="outline" cx="0" cy="0" r="25" fill="#F16667" stroke="#eb2728" stroke-width="2px"/><text class="caption" text-anchor="middle" pointer-events="none" x="0" y="5" font-size="10px" fill="#FFFFFF" font-family="sans-serif"> BhikeB…</text></g></g></svg>