<svg xmlns="http://www.w3.org/2000/svg" width="374.70147705078125" height="200.965087890625" viewBox="-413.763427734375 -149.90499877929688 374.70147705078125 200.965087890625"><title>Neo4j Graph Visualization</title><desc>Created using Neo4j (http://www.neo4j.com/)</desc><g class="layer relationships"><g class="relationship" transform="translate(-239.55661424340406 -120.90498957704021) rotate(523.4078906362989)"><path class="outline" fill="#A5ABB6" stroke="none" d="M 21.40063509461097,12.933012701892217 L 21.90063509461097,12.06698729810778 A 105.08098371175413 105.08098371175413 0 0 0 60.208241643947076,25.176808208240686 L 60.072794821850486,26.16759282579585 A 106.08098371175413 106.08098371175413 0 0 1 21.40063509461097,12.933012701892217 Z M 84.12863585643836,26.70190306019728 L 84.03731403261108,25.70608162816599 A 105.08098371175413 105.08098371175413 0 0 0 122.88922569205384,14.310069859071051 L 121.50606109755986,11.647954965882125 L 129.33135454191034,11.526371620783237 L 124.73344515137916,17.859556383322953 L 123.35028055688518,15.197441490134027 A 106.08098371175413 106.08098371175413 0 0 1 84.12863585643836,26.70190306019728"/><text text-anchor="middle" pointer-events="none" font-size="8px" fill="#000000" x="72.09661985800815" y="29.619135657906384" transform="rotate(180 72.09661985800815 26.619135657906384)" font-family="sans-serif">road</text></g><g class="relationship" transform="translate(-384.7634374385525 -77.63872935212855) rotate(381.9876699433172)"><path class="outline" fill="#A5ABB6" stroke="none" d="M 25 0.5 L 77.25032877394887 0.5 L 77.25032877394887 -0.5 L 25 -0.5 Z M 99.05032896468373 0.5 L 151.3006577386326 0.5 L 151.3006577386326 3.5 L 158.3006577386326 0 L 151.3006577386326 -3.5 L 151.3006577386326 -0.5 L 99.05032896468373 -0.5 Z"/><text text-anchor="middle" pointer-events="none" font-size="8px" fill="#000000" x="88.1503288693163" y="3" font-family="sans-serif">trek</text></g><g class="relationship selected" transform="translate(-214.79525413674145 -9.009669964014467) rotate(371.95539616348776)"><path class="outline" fill="#A5ABB6" stroke="none" d="M 25 0.5 L 60.5933201593641 0.5 L 60.5933201593641 -0.5 L 25 -0.5 Z M 82.39332035009896 0.5 L 117.98664050946306 0.5 L 117.98664050946306 3.5 L 124.98664050946306 0 L 117.98664050946306 -3.5 L 117.98664050946306 -0.5 L 82.39332035009896 -0.5 Z"/><text text-anchor="middle" pointer-events="none" font-size="8px" fill="#000000" x="71.49332025473153" y="3" font-family="sans-serif">trek</text></g><g class="relationship" transform="translate(-239.55661424340406 -120.90498957704021) rotate(523.4078906362989)"><path class="outline" fill="#A5ABB6" stroke="none" d="M 25 0.5 L 38.65782227777265 0.5 L 38.65782227777265 -0.5 L 25 -0.5 Z M 105.8578230407121 0.5 L 119.51564531848476 0.5 L 119.51564531848476 3.5 L 126.51564531848476 0 L 119.51564531848476 -3.5 L 119.51564531848476 -0.5 L 105.8578230407121 -0.5 Z"/><text text-anchor="middle" pointer-events="none" font-size="8px" fill="#000000" x="72.25782265924238" y="3" transform="rotate(180 72.25782265924238 0)" font-family="sans-serif">PublicTransport</text></g><g class="relationship" transform="translate(-239.55661424340406 -120.90498957704021) rotate(523.4078906362989)"><path class="outline" fill="#A5ABB6" stroke="none" d="M 21.40063509461097,-12.933012701892217 L 21.90063509461097,-12.06698729810778 A 105.08098371175413 105.08098371175413 0 0 1 61.293696194507575,-25.319440983752116 L 61.16857906777754,-26.311582961797 A 106.08098371175413 106.08098371175413 0 0 0 21.40063509461097,-12.933012701892217 Z M 83.02753901770139,-26.797097727122505 L 82.94659696977935,-25.8003789177895 A 105.08098371175413 105.08098371175413 0 0 1 122.88922569205384,-14.310069859071051 L 121.50606109755986,-11.647954965882125 L 129.33135454191034,-11.526371620783237 L 124.73344515137916,-17.859556383322953 L 123.35028055688518,-15.197441490134027 A 106.08098371175413 106.08098371175413 0 0 0 83.02753901770139,-26.797097727122505"/><text text-anchor="middle" pointer-events="none" font-size="8px" fill="#000000" x="72.09661985800815" y="-23.619135657906384" transform="rotate(180 72.09661985800815 -26.619135657906384)" font-family="sans-serif">trek</text></g></g><g class="layer nodes"><g class="node" aria-label="graph-node21" transform="translate(-239.55661424340406,-120.90498957704021)"><circle class="outline" cx="0" cy="0" r="25" fill="#57C7E3" stroke="#23b3d7" stroke-width="2px"/><text class="caption" text-anchor="middle" pointer-events="none" x="0" y="5" font-size="10px" fill="#2A2C34" font-family="sans-serif"> Darjeeli…</text></g><g class="node" aria-label="graph-node23" transform="translate(-68.06194981795217,22.060085989395837)"><circle class="outline" cx="0" cy="0" r="25" fill="#D9C8AE" stroke="#c0a378" stroke-width="2px"/><text class="caption" text-anchor="middle" pointer-events="none" x="0" y="5" font-size="10px" fill="#2A2C34" font-family="sans-serif"> Sandak…</text></g><g class="node" aria-label="graph-node20" transform="translate(-384.7634374385525,-77.63872935212855)"><circle class="outline" cx="0" cy="0" r="25" fill="#57C7E3" stroke="#23b3d7" stroke-width="2px"/><text class="caption" text-anchor="middle" pointer-events="none" x="0" y="5" font-size="10px" fill="#2A2C34" font-family="sans-serif"> Rimbik</text></g><g class="node" aria-label="graph-node22" transform="translate(-214.79525413674145,-9.009669964014467)"><circle class="outline" cx="0" cy="0" r="25" fill="#F16667" stroke="#eb2728" stroke-width="2px"/><text class="caption" text-anchor="middle" pointer-events="none" x="0" y="5" font-size="10px" fill="#FFFFFF" font-family="sans-serif"> BhikeB…</text></g></g></svg>